<svg width="148" height="63" viewBox="0 0 148 63" fill="none" xmlns="http://www.w3.org/2000/svg">
<path d="M44.39 62.35C38.8367 62.35 33.68 61.3 28.92 59.2C24.16 57.1 19.75 53.53 15.69 48.49C10.93 47.09 7.17333 44.2433 4.42 39.95C1.66667 35.6567 0.29 30.64 0.29 24.9C0.29 20.3267 1.17667 16.1733 2.95 12.44C4.72333 8.70667 7.24333 5.76667 10.51 3.62C13.8233 1.47333 17.65 0.399999 21.99 0.399999C26.33 0.399999 30.1333 1.47333 33.4 3.62C36.7133 5.76667 39.2567 8.70667 41.03 12.44C42.8033 16.1733 43.69 20.3267 43.69 24.9C43.69 30.78 42.2433 35.89 39.35 40.23C36.5033 44.5233 32.63 47.3233 27.73 48.63C28.43 50.87 29.7133 52.9233 31.58 54.79C33.4467 56.7033 35.5467 58.1967 37.88 59.27C40.2133 60.39 42.3833 60.95 44.39 60.95V62.35ZM21.99 46.6C25.0233 46.6 27.6367 45.7133 29.83 43.94C32.07 42.1667 33.7733 39.67 34.94 36.45C36.1067 33.1833 36.69 29.3333 36.69 24.9C36.69 20.4667 36.1067 16.64 34.94 13.42C33.7733 10.1533 32.07 7.63333 29.83 5.86C27.6367 4.08666 25.0233 3.2 21.99 3.2C18.9567 3.2 16.32 4.08666 14.08 5.86C11.8867 7.63333 10.2067 10.1533 9.04 13.42C7.87333 16.64 7.29 20.4667 7.29 24.9C7.29 29.3333 7.87333 33.1833 9.04 36.45C10.2067 39.67 11.8867 42.1667 14.08 43.94C16.32 45.7133 18.9567 46.6 21.99 46.6ZM63.9807 48.7C60.4807 48.7 57.6107 47.7667 55.3707 45.9C53.1774 44.0333 52.0807 40.7667 52.0807 36.1V23.5C52.0807 21.12 51.754 19.37 51.1007 18.25C50.4474 17.0833 49.1407 16.5 47.1807 16.5H46.4807V15.1H52.0807C53.8074 15.1 55.0907 15.3333 55.9307 15.8C56.8174 16.22 57.4474 17.0133 57.8207 18.18C58.194 19.3467 58.3807 21.12 58.3807 23.5V36.1C58.3807 39.3667 59.104 41.77 60.5507 43.31C62.044 44.8033 63.8874 45.55 66.0807 45.55C68.554 45.55 70.8874 44.3133 73.0807 41.84V15.1H79.3807V48H75.8807L73.4307 45.2H73.0807C72.1007 46.18 70.8174 47.02 69.2307 47.72C67.6907 48.3733 65.9407 48.7 63.9807 48.7ZM97.3116 48.7C95.8183 48.7 94.3016 48.3967 92.7616 47.79C91.2216 47.1367 89.8916 46.0867 88.7716 44.64C87.6983 43.1933 87.1616 41.28 87.1616 38.9C87.1616 35.3533 88.795 32.8333 92.0616 31.34C95.375 29.8467 99.6916 29.1 105.012 29.1H107.112C107.112 24.5267 106.482 21.4 105.222 19.72C103.962 18.04 102.142 17.2 99.7616 17.2C97.6616 17.2 95.9816 17.6433 94.7216 18.53C93.4616 19.4167 92.575 20.9567 92.0616 23.15H88.9116C88.9116 21.5633 89.005 20.3267 89.1916 19.44C89.3783 18.5067 89.8683 17.6433 90.6616 16.85C91.5016 16.01 92.8783 15.4033 94.7916 15.03C96.7516 14.61 98.875 14.4 101.162 14.4C104.942 14.4 107.928 15.4267 110.122 17.48C112.315 19.4867 113.412 23.36 113.412 29.1V48H109.912L107.462 44.85H107.112C106.272 45.9233 105.035 46.8333 103.402 47.58C101.768 48.3267 99.7383 48.7 97.3116 48.7ZM100.462 45.55C102.002 45.55 103.285 45.1767 104.312 44.43C105.338 43.6833 106.272 42.6567 107.112 41.35V31.9H105.012C101.558 31.9 98.8283 32.5533 96.8216 33.86C94.815 35.12 93.8116 36.8 93.8116 38.9C93.8116 41.0467 94.4416 42.7033 95.7016 43.87C97.0083 44.99 98.595 45.55 100.462 45.55ZM126.883 10.9C125.809 10.9 124.876 10.4567 124.083 9.57C123.336 8.68333 122.963 7.63333 122.963 6.42C122.963 5.44 123.243 4.67 123.803 4.11C124.409 3.55 125.203 3.27 126.183 3.27C127.256 3.27 128.166 3.71333 128.913 4.6C129.706 5.48667 130.103 6.53667 130.103 7.75C130.103 8.73 129.799 9.5 129.193 10.06C128.633 10.62 127.863 10.9 126.883 10.9ZM124.223 23.5C124.223 21.12 123.896 19.37 123.243 18.25C122.589 17.0833 121.283 16.5 119.323 16.5H117.923V15.1H124.223C125.949 15.1 127.233 15.3333 128.073 15.8C128.959 16.22 129.589 17.0133 129.963 18.18C130.336 19.3467 130.523 21.12 130.523 23.5V48H124.223V23.5ZM141.226 10.2C141.226 7.82 140.9 6.07 140.246 4.95C139.593 3.78333 138.286 3.2 136.326 3.2H134.926V1.8H141.226C142.953 1.8 144.236 2.03333 145.076 2.5C145.963 2.92 146.593 3.71333 146.966 4.88C147.34 6.04666 147.526 7.82 147.526 10.2V48H141.226V10.2Z" fill="black"/>
</svg>
